<svg width="16" height="16" viewBox="0 0 16 16" fill="none" xmlns="http://www.w3.org/2000/svg">
<path d="M1.344 15.928C1.024 15.928 0.864 15.832 0.864 15.64C0.864 15.512 0.912 15.384 1.008 15.256C1.104 15.128 1.192 15.04 1.272 14.992C1.512 14.8 1.76 14.592 2.016 14.368C2.288 14.144 2.616 13.824 3 13.408C3.384 12.976 3.864 12.376 4.44 11.608L10.872 3.16C11.144 2.792 11.28 2.496 11.28 2.272C11.28 2 11.104 1.832 10.752 1.768C10.416 1.688 9.992 1.648 9.48 1.648C9.16 1.648 8.816 1.656 8.448 1.672C8.096 1.688 7.736 1.688 7.368 1.672C6.632 1.672 5.992 1.952 5.448 2.512C4.904 3.056 4.568 3.896 4.44 5.032C4.424 5.24 4.344 5.36 4.2 5.392C4.072 5.408 4.016 5.36 4.032 5.248C4.096 4.608 4.16 4.096 4.224 3.712C4.288 3.312 4.336 2.832 4.368 2.272C4.4 1.68 4.512 1.272 4.704 1.048C4.912 0.808 5.312 0.704 5.904 0.735999C6.704 0.768 7.688 0.8 8.856 0.831999C10.024 0.847999 11.168 0.855999 12.288 0.855999C12.8 0.855999 13.296 0.855999 13.776 0.855999C14.272 0.839999 14.704 0.831999 15.072 0.831999C15.28 0.831999 15.472 0.847999 15.648 0.879999C15.824 0.895999 15.912 0.944 15.912 1.024C15.912 1.072 15.856 1.144 15.744 1.24C15.568 1.384 15.376 1.568 15.168 1.792C14.96 2.016 14.6 2.384 14.088 2.896C13.336 3.664 12.576 4.512 11.808 5.44C11.056 6.368 10.328 7.296 9.624 8.224C8.936 9.152 8.32 10 7.776 10.768C7.232 11.536 6.8 12.16 6.48 12.64C6.176 13.104 6.024 13.336 6.024 13.336C5.848 13.56 5.76 13.752 5.76 13.912C5.76 14.296 6.112 14.568 6.816 14.728C7.536 14.872 8.392 14.944 9.384 14.944C10.6 14.944 11.632 14.616 12.48 13.96C13.344 13.288 14.008 12.432 14.472 11.392C14.504 11.344 14.528 11.32 14.544 11.32C14.592 11.32 14.632 11.352 14.664 11.416C14.712 11.464 14.72 11.52 14.688 11.584C14.624 11.76 14.536 12.04 14.424 12.424C14.328 12.792 14.2 13.2 14.04 13.648C13.896 14.08 13.72 14.488 13.512 14.872C13.304 15.24 13.056 15.512 12.768 15.688C12.624 15.784 12.344 15.832 11.928 15.832C11.528 15.832 10.984 15.808 10.296 15.76C9.608 15.712 8.792 15.688 7.848 15.688C7.528 15.688 7.152 15.688 6.72 15.688C6.288 15.672 5.84 15.664 5.376 15.664C4.752 15.664 4.128 15.68 3.504 15.712C2.88 15.744 2.312 15.8 1.8 15.88C1.704 15.896 1.616 15.912 1.536 15.928C1.472 15.928 1.408 15.928 1.344 15.928Z" fill="black"/>
</svg>
