<svg width="31" height="34" viewBox="0 0 31 34" fill="none" xmlns="http://www.w3.org/2000/svg">
<circle cx="15.5" cy="15.5" r="15.5" fill="white"/>
<path d="M8.344 22.928C8.024 22.928 7.864 22.832 7.864 22.64C7.864 22.512 7.912 22.384 8.008 22.256C8.104 22.128 8.192 22.04 8.272 21.992C8.512 21.8 8.76 21.592 9.016 21.368C9.288 21.144 9.616 20.824 10 20.408C10.384 19.976 10.864 19.376 11.44 18.608L17.872 10.16C18.144 9.792 18.28 9.496 18.28 9.272C18.28 9 18.104 8.832 17.752 8.768C17.416 8.688 16.992 8.648 16.48 8.648C16.16 8.648 15.816 8.656 15.448 8.672C15.096 8.688 14.736 8.688 14.368 8.672C13.632 8.672 12.992 8.952 12.448 9.512C11.904 10.056 11.568 10.896 11.44 12.032C11.424 12.24 11.344 12.36 11.2 12.392C11.072 12.408 11.016 12.36 11.032 12.248C11.096 11.608 11.16 11.096 11.224 10.712C11.288 10.312 11.336 9.832 11.368 9.272C11.4 8.68 11.512 8.272 11.704 8.048C11.912 7.808 12.312 7.704 12.904 7.736C13.704 7.768 14.688 7.8 15.856 7.832C17.024 7.848 18.168 7.856 19.288 7.856C19.8 7.856 20.296 7.856 20.776 7.856C21.272 7.84 21.704 7.832 22.072 7.832C22.28 7.832 22.472 7.848 22.648 7.88C22.824 7.896 22.912 7.944 22.912 8.024C22.912 8.072 22.856 8.144 22.744 8.24C22.568 8.384 22.376 8.568 22.168 8.792C21.96 9.016 21.6 9.384 21.088 9.896C20.336 10.664 19.576 11.512 18.808 12.44C18.056 13.368 17.328 14.296 16.624 15.224C15.936 16.152 15.32 17 14.776 17.768C14.232 18.536 13.8 19.16 13.48 19.64C13.176 20.104 13.024 20.336 13.024 20.336C12.848 20.56 12.76 20.752 12.76 20.912C12.76 21.296 13.112 21.568 13.816 21.728C14.536 21.872 15.392 21.944 16.384 21.944C17.6 21.944 18.632 21.616 19.48 20.96C20.344 20.288 21.008 19.432 21.472 18.392C21.504 18.344 21.528 18.32 21.544 18.32C21.592 18.32 21.632 18.352 21.664 18.416C21.712 18.464 21.72 18.52 21.688 18.584C21.624 18.76 21.536 19.04 21.424 19.424C21.328 19.792 21.2 20.2 21.04 20.648C20.896 21.08 20.72 21.488 20.512 21.872C20.304 22.24 20.056 22.512 19.768 22.688C19.624 22.784 19.344 22.832 18.928 22.832C18.528 22.832 17.984 22.808 17.296 22.76C16.608 22.712 15.792 22.688 14.848 22.688C14.528 22.688 14.152 22.688 13.72 22.688C13.288 22.672 12.84 22.664 12.376 22.664C11.752 22.664 11.128 22.68 10.504 22.712C9.88 22.744 9.312 22.8 8.8 22.88C8.704 22.896 8.616 22.912 8.536 22.928C8.472 22.928 8.408 22.928 8.344 22.928Z" fill="black"/>
</svg>
